0.06m3min_grf.mot
version=1
nRows=25
nColumns 19
inDegrees=yes
endheader
time	1_ground_force_vx	1_ground_force_vy	1_ground_force_vz	1_ground_force_px	1_ground_force_py	1_ground_force_pz	1_ground_torque_x	1_ground_torque_y	1_ground_torque_z	2_ground_force_vx	2_ground_force_vy	2_ground_force_vz	2_ground_force_px	2_ground_force_py	2_ground_force_pz	2_ground_torque_x	2_ground_torque_y	2_ground_torque_z
            2.502500	            6.727512	          490.426589	          -21.851395	           -0.181411	            0.006273	           -0.414824	            0.008500	            0.619636	           -0.027608	            3.798473	          336.994988	            5.283031	           -0.165847	            0.005735	           -0.655650	           -0.014357	           -1.273739	           -0.019968
            2.503000	            6.729752	          485.016456	          -21.370169	           -0.181375	            0.006273	           -0.414857	            0.008568	            0.617514	           -0.027208	            3.674915	          332.208982	            4.609014	           -0.165974	            0.005732	           -0.655063	           -0.014332	           -1.295634	           -0.017975
            2.503500	            6.502531	          480.327538	          -20.931138	           -0.181316	            0.006272	           -0.414538	            0.008516	            0.629071	           -0.027413	            3.919902	          329.262618	            4.833042	           -0.165951	            0.005734	           -0.655464	           -0.015262	           -1.281988	           -0.018818
            2.504000	            6.412078	          474.198291	          -20.911335	           -0.181010	            0.006275	           -0.415209	            0.008305	            0.614184	           -0.027084	            3.890914	          324.291075	            4.627609	           -0.165808	            0.005735	           -0.655630	           -0.015642	           -1.303654	           -0.018603
            2.504500	            6.460340	          468.427439	          -20.385912	           -0.181041	            0.006274	           -0.414885	            0.008568	            0.621227	           -0.027036	            4.094724	          319.689725	            4.141822	           -0.165623	            0.005733	           -0.654832	           -0.016724	           -1.305669	           -0.016916
            2.505000	            6.462220	          463.738762	          -19.993306	           -0.180889	            0.006274	           -0.415048	            0.007123	            0.511134	           -0.022037	            3.826232	          316.190082	            4.082529	           -0.165605	            0.005735	           -0.655338	           -0.014169	           -1.170869	           -0.015118
            2.505500	            6.188443	          457.969814	          -19.925647	           -0.180915	            0.006273	           -0.414801	            0.005990	            0.443267	           -0.019286	            4.115909	          313.797648	            3.933083	           -0.166180	            0.005736	           -0.656255	           -0.015229	           -1.161026	           -0.014552
            2.506000	            6.648786	          453.100991	          -19.534951	           -0.180973	            0.006273	           -0.414818	            0.006424	            0.437792	           -0.018875	            4.181992	          308.457828	            3.820152	           -0.165770	            0.005735	           -0.655623	           -0.016096	           -1.187228	           -0.014703
            2.506500	            6.512586	          447.692404	          -19.420231	           -0.180892	            0.006274	           -0.414887	            0.007211	            0.495737	           -0.021504	            4.104867	          303.854124	            3.709910	           -0.165324	            0.005736	           -0.655331	           -0.015008	           -1.110954	           -0.013564
            2.507000	            6.468560	          442.102753	          -19.123088	           -0.180955	            0.006275	           -0.415133	            0.007301	            0.498988	           -0.021584	            4.024918	          299.988382	            3.226870	           -0.165285	            0.005736	           -0.655283	           -0.014217	           -1.059636	           -0.011398
            2.507500	            6.654105	          437.053187	          -18.640771	           -0.180579	            0.006274	           -0.414867	            0.009006	            0.591521	           -0.025229	            4.088925	          295.201654	            2.928198	           -0.165479	            0.005733	           -0.654680	           -0.014317	           -1.033605	           -0.010253
            2.508000	            6.380667	          432.545146	          -18.338421	           -0.180635	            0.006273	           -0.414638	            0.006686	            0.453270	           -0.019217	            4.191950	          292.623794	            2.965888	           -0.165535	            0.005736	           -0.655802	           -0.015055	           -1.050920	           -0.010652
            2.508500	            6.336042	          425.875277	          -18.366906	           -0.180577	            0.006276	           -0.415332	            0.005033	            0.338292	           -0.014590	            4.304197	          287.468451	            2.806666	           -0.165521	            0.005734	           -0.655028	           -0.014913	           -0.996016	           -0.009724
            2.509000	            6.383944	          420.825880	          -17.930104	           -0.180526	            0.006275	           -0.415157	            0.004036	            0.266066	           -0.011336	            4.457251	          283.971167	            2.512553	           -0.165432	            0.005735	           -0.655146	           -0.015865	           -1.010783	           -0.008943
            2.509500	            6.385615	          415.416731	          -17.678157	           -0.180420	            0.006275	           -0.415222	            0.004857	            0.315960	           -0.013446	            4.569561	          278.815322	            2.494116	           -0.165278	            0.005731	           -0.654002	           -0.016631	           -1.014752	           -0.009077
            2.510000	            6.570508	          411.449545	          -17.374626	           -0.180296	            0.006274	           -0.414904	            0.005715	            0.357848	           -0.015111	            4.441556	          275.316689	            2.293979	           -0.165183	            0.005733	           -0.654445	           -0.015972	           -0.990079	           -0.008249
            2.510500	            6.434113	          405.861116	          -17.352391	           -0.180357	            0.006273	           -0.414829	            0.006840	            0.431443	           -0.018446	            4.642893	          271.450395	            2.233173	           -0.164783	            0.005732	           -0.653764	           -0.016973	           -0.992335	           -0.008164
            2.511000	            6.528071	          400.270705	          -16.872165	           -0.180037	            0.006276	           -0.415412	            0.006170	            0.378313	           -0.015947	            4.656185	          267.767459	            2.220032	           -0.164841	            0.005734	           -0.654308	           -0.017368	           -0.998807	           -0.008281
            2.511500	            6.071048	          396.303592	          -16.612897	           -0.180513	            0.006273	           -0.414670	            0.003967	            0.258976	           -0.010856	            4.480707	          264.452462	            2.114428	           -0.164997	            0.005733	           -0.654249	           -0.014707	           -0.868027	           -0.006940
            2.512000	            6.485419	          390.894325	          -16.316119	           -0.180363	            0.006275	           -0.415160	            0.004145	            0.249856	           -0.010429	            4.686052	          259.481096	            2.096608	           -0.164434	            0.005732	           -0.653352	           -0.016363	           -0.906048	           -0.007321
            2.512500	            6.486242	          386.387714	          -16.335443	           -0.180480	            0.006274	           -0.414988	            0.003279	            0.195348	           -0.008259	            4.786959	          257.456663	            1.854700	           -0.165369	            0.005735	           -0.655143	           -0.016404	           -0.882231	           -0.006356
            2.513000	            6.121672	          381.338042	          -15.851760	           -0.180413	            0.006274	           -0.414931	            0.002896	            0.180425	           -0.007500	            4.992324	          252.485160	            1.883808	           -0.164872	            0.005732	           -0.653865	           -0.017810	           -0.900710	           -0.006720
            2.513500	            6.398301	          376.469711	          -15.598178	           -0.180136	            0.006273	           -0.414618	            0.004260	            0.250674	           -0.010386	            5.098487	          248.988011	            1.495859	           -0.164990	            0.005731	           -0.653757	           -0.018934	           -0.924671	           -0.005555
            2.514000	            6.444853	          371.963306	          -15.663471	           -0.180290	            0.006273	           -0.414636	            0.004796	            0.276799	           -0.011656	            4.923736	          245.488341	            1.530383	           -0.164492	            0.005734	           -0.654172	           -0.017941	           -0.894503	           -0.005576
            2.514500	            6.630383	          366.373109	          -15.229329	           -0.180027	            0.006274	           -0.414966	            0.004601	            0.254243	           -0.010568	            4.934350	          242.542135	            1.472941	           -0.164759	            0.005736	           -0.654773	           -0.016656	           -0.818727	           -0.004972
